<svg  height="12" viewBox="0 0 100 12" fill="none" xmlns="http://www.w3.org/2000/svg">
<path d="M0 1.97776V10.5811C0 10.8279 0.200096 11.028 0.446927 11.028H3.46369C3.71052 11.028 3.91061 10.8279 3.91061 10.5811V4.28578C3.91061 3.88761 4.39202 3.68821 4.67357 3.96976L11.6009 10.8971C11.6848 10.9809 11.7984 11.028 11.917 11.028H17.4302C17.677 11.028 17.8771 10.8279 17.8771 10.5811V1.97775C17.8771 1.73092 17.677 1.53083 17.4302 1.53083H14.4134C14.1666 1.53083 13.9665 1.73092 13.9665 1.97775V7.71442C13.9665 8.11259 13.4851 8.31199 13.2035 8.03044L6.83481 1.66173C6.751 1.57791 6.63732 1.53083 6.51879 1.53083H0.446927C0.200096 1.53083 0 1.73092 0 1.97776Z" fill="white"/>
<path d="M24.4468 6.17264L21.2314 10.3067C21.0031 10.6003 21.2123 11.028 21.5842 11.028H24.9162C25.0569 11.028 25.1893 10.9618 25.2737 10.8493L26.6816 8.97217C26.766 8.85963 26.8984 8.7934 27.0391 8.7934H34.4134C34.5541 8.7934 34.6865 8.85963 34.7709 8.97217L36.1788 10.8493C36.2632 10.9618 36.3956 11.028 36.5363 11.028H39.908C40.2726 11.028 40.4838 10.615 40.2704 10.3194L33.6533 1.15742C33.5693 1.04108 33.4345 0.972168 33.291 0.972168H28.7064C28.5707 0.972168 28.4422 1.03388 28.3574 1.1399L26.8379 3.03934C26.6038 3.33197 26.8121 3.76546 27.1869 3.76546H31.0615C31.2021 3.76546 31.3346 3.8317 31.419 3.94424L32.4246 5.28502C32.6456 5.57965 32.4353 6.0001 32.067 6.0001H24.7996C24.6617 6.0001 24.5315 6.06378 24.4468 6.17264Z" fill="white"/>
<path d="M40.0894 3.58669L39.0838 2.24591C38.8628 1.95128 39.0731 1.53083 39.4413 1.53083H55.419C55.6658 1.53083 55.8659 1.73092 55.8659 1.97775V3.31854C55.8659 3.56537 55.6658 3.76546 55.419 3.76546H50.7263C50.4794 3.76546 50.2793 3.96556 50.2793 4.21239V10.5811C50.2793 10.8279 50.0792 11.028 49.8324 11.028H46.257C46.0102 11.028 45.8101 10.8279 45.8101 10.5811V4.21239C45.8101 3.96556 45.61 3.76546 45.3631 3.76546H40.4469C40.3063 3.76546 40.1738 3.69923 40.0894 3.58669Z" fill="white"/>
<path d="M58.1006 10.5811V1.97775C58.1006 1.73092 58.3007 1.53083 58.5475 1.53083H62.1229C62.3697 1.53083 62.5698 1.73092 62.5698 1.97776V10.5811C62.5698 10.8279 62.3697 11.028 62.1229 11.028H58.5475C58.3007 11.028 58.1006 10.8279 58.1006 10.5811Z" fill="white"/>
<path d="M71.3742 10.8526L64.7952 2.24924C64.5703 1.95516 64.78 1.53083 65.1502 1.53083H68.5058C68.6384 1.53083 68.7642 1.58974 68.8491 1.69164L73.9399 7.80058C74.1245 8.02219 74.4677 8.0134 74.6408 7.78262L79.1955 1.7096C79.2799 1.59706 79.4124 1.53083 79.5531 1.53083H82.3358C82.706 1.53083 82.9157 1.95516 82.6908 2.24924L76.1118 10.8526C76.0273 10.9632 75.896 11.028 75.7568 11.028H71.7292C71.59 11.028 71.4588 10.9632 71.3742 10.8526Z" fill="white"/>
<path d="M85.4749 3.31854V1.97775C85.4749 1.73092 85.6749 1.53083 85.9218 1.53083H99.5531C99.7999 1.53083 100 1.73092 100 1.97775V3.31854C100 3.56537 99.7999 3.76546 99.5531 3.76546H85.9218C85.6749 3.76546 85.4749 3.56537 85.4749 3.31854Z" fill="white"/>
<path d="M85.4749 10.5811V5.32971C85.4749 5.08288 85.6749 4.88278 85.9218 4.88278H96.2011C96.4479 4.88278 96.648 5.08288 96.648 5.32971V6.67049C96.648 6.91732 96.4479 7.11742 96.2011 7.11742H89.8324C89.5856 7.11742 89.3855 7.31752 89.3855 7.56435V7.78781C89.3855 8.03464 89.5856 8.23474 89.8324 8.23474H99.5531C99.7999 8.23474 100 8.43483 100 8.68167V10.5811C100 10.8279 99.7999 11.028 99.5531 11.028H85.9218C85.6749 11.028 85.4749 10.8279 85.4749 10.5811Z" fill="white"/>
</svg>