<svg width="204" height="21" viewBox="0 0 204 21" fill="none" xmlns="http://www.w3.org/2000/svg">
<path d="M13.26 0.940002L29.42 15.8L29.22 0.940002H37.34V20.49H23.86L7.93994 5.78003L8.14001 20.49H0.0200195V0.940002H13.26Z" fill="#0F0D0E"/>
<path d="M68.3199 0.940002H57.4399L53.73 5.78003H63.63L67.08 10.79H49.89L42.4399 20.5H51.64L55.1801 15.68H70.39L74.04 20.5H82.92L68.3199 0.940002Z" fill="#0F0D0E"/>
<path d="M81.65 5.78003L78.04 0.940002H114.06V5.78003H102.18V20.49H94.0601V5.78003H81.66H81.65Z" fill="#0F0D0E"/>
<path d="M126.69 0.940002V20.49H118.57V0.940002H126.69Z" fill="#0F0D0E"/>
<path d="M139.65 0.940002L150.17 15.71L160.93 0.940002H169.97L155.21 20.49H144.93L130.69 0.940002H139.65Z" fill="#0F0D0E"/>
<path d="M202.91 0.940002H173.35V5.77002H202.91V0.940002Z" fill="#0F0D0E"/>
<path d="M181.47 15.66V13.09H196.6V8.26001H173.35V20.5H203.2V15.66H181.47Z" fill="#0F0D0E"/>
</svg>
